PathFileType	4	(X/Y/Z)	Patient4_TMGait_0pt5_02_right_29.trc.trc
DataRate	CameraRate	NumFrames	NumMarkers	Units	OrigDataRate	OrigDataStartFrame	OrigNumFrames
78.212290502793	78.212290502793	4	33	mm	78.212290502793	53	       141
Frame#	Time	Sacral			L.Shoulder			Chest			R.Shoulder			Neck			R.ASIS			L.ASIS			R.Thigh.Superior			R.Thigh.Lateral			R.Thigh.Inferior			R.Patella			L.Thigh.Superior			L.Thigh.Lateral			L.Thigh.Inferior			L.Patella			L.Shank.Superior			L.Shank.Lateral			L.Shank.Inferior			R.Shank.Superior			R.Shank.Lateral			R.Shank.Inferior			R.Heel			R.Midfoot.Superior			R.Midfoot.Lateral			R.Toe			L.Heel			L.Midfoot.Lateral			L.Midfoot.Superior			L.Toe			L.Elbow			L.Wrist			R.Elbow			R.Wrist			
		X1	Y1	Z1	X2	Y2	Z2	X3	Y3	Z3	X4	Y4	Z4	X5	Y5	Z5	X6	Y6	Z6	X7	Y7	Z7	X8	Y8	Z8	X9	Y9	Z9	X10	Y10	Z10	X11	Y11	Z11	X12	Y12	Z12	X13	Y13	Z13	X14	Y14	Z14	X15	Y15	Z15	X16	Y16	Z16	X17	Y17	Z17	X18	Y18	Z18	X19	Y19	Z19	X20	Y20	Z20	X21	Y21	Z21	X22	Y22	Z22	X23	Y23	Z23	X24	Y24	Z24	X25	Y25	Z25	X26	Y26	Z26	X27	Y27	Z27	X28	Y28	Z28	X29	Y29	Z29	X30	Y30	Z30	X31	Y31	Z31	X32	Y32	Z32	X33	Y33	Z33	

53	38.514857142857	675.010795901740	1010.915841032608	537.618281545157	847.025125219167	1440.843463460011	356.721565189384	960.557762313747	1364.726061445264	507.871034671422	892.052733588507	1435.524718039167	690.262633616235	859.822117489587	1496.587821445783	509.096451580176	906.141051703594	940.554851742799	640.081146861004	877.599973885302	966.614735670759	367.903820131057	936.018278126024	737.475942580447	606.416667736374	853.083890348909	632.323043964556	668.319529782643	923.308429033669	577.255430802337	584.175278481135	918.967087016994	488.842819290589	588.611659678881	961.833792478908	784.729013797574	398.839953415625	919.992822121416	658.331824302715	319.772324503677	1020.118895716100	597.692325127863	385.020634638607	1043.569127414238	520.344850369359	378.333711499429	1006.468117593552	445.500731628234	366.856360211872	903.618371642201	345.465639436007	310.842355292224	949.882213425969	223.579508097682	366.134367244590	888.336427065907	401.171305396697	596.337034615110	814.826702993071	299.517552180697	658.124197487165	850.812531336428	204.345571993877	592.557424522117	711.032249608676	42.710910813199	562.120369097606	881.599938486949	97.081849826450	598.471258478789	794.345062100835	36.243329243435	637.433172154447	1002.271800642910	45.344836093277	625.621449129743	812.109599880084	74.677687941583	398.271650700672	881.166371633287	71.083514446863	314.428425529059	971.209099551434	123.076923147640	338.787181975988	1090.093805177284	64.187828113349	299.227323335842	773.258415386229	1092.699291316962	242.771420532305	829.636570272148	838.649234172526	213.038033904318	921.968936414027	1098.643915292376	825.770611875076	1147.199972315127	981.497838639447	780.220413884390	
54	38.527642857143	674.625473283692	1011.037661269607	538.483790325663	846.172635244695	1440.716592052863	356.822339991376	960.253624894645	1364.590016067863	507.541640642507	892.523958503130	1435.517438720859	690.194137766615	859.574281954147	1496.513494227302	509.135281057751	905.966196733089	940.447162408805	639.998083715629	876.629583109265	966.524655767476	367.780835864237	933.795291229573	736.720925508501	606.112967527582	850.263880102618	632.089221019872	668.560088963270	919.526803940525	576.481952132511	584.194225619229	914.339300685537	488.260978285068	588.696798931448	959.696144276475	784.073227114157	398.644258392988	917.793982498535	658.262884659516	318.616598365076	1017.181752210475	597.283937169541	384.695834231193	1041.888110395817	522.211314953948	377.814913189551	1008.690709282198	447.581076071435	365.776822449354	912.774528092128	341.595706188894	308.609995203581	966.100761732605	222.423405505952	364.246955723232	883.440956282491	400.667621400835	596.376922880105	809.521641614785	299.265984008479	658.117469822293	844.936529421935	204.008583448626	592.475808647839	704.574209135060	42.675001554920	562.121051509047	875.076329766617	96.934955327312	598.250428329869	787.875850713064	36.237985585000	637.437327605201	995.791352608661	45.326386196898	625.638130648456	837.102719152518	66.047540926226	395.464016583839	907.382195125181	65.425779670255	312.451753204107	994.397275770057	122.193461322907	337.334496417949	1116.712547607097	69.132328003143	299.730475829206	769.222097826151	1093.290685239233	243.241071109920	816.354116317828	837.683164926044	212.995656672925	925.904230657985	1099.289010976800	825.345301662844	1156.733652577338	997.442754197692	775.056255405618	
55	38.540428571429	674.320519912252	1011.059193330504	539.117835801826	845.467239084341	1440.555257740721	356.805384631407	959.995023308612	1364.386660271937	507.147842175390	892.891134431221	1435.389457892301	690.027406346407	859.368851763909	1496.365969831322	509.079220283416	905.850681915438	940.298038287640	639.836374463790	875.815426530439	966.303381132257	367.561419505432	931.762300093265	735.937903290579	605.867947388473	847.566615868903	631.809761673055	668.705669676720	915.955518288134	575.684725770830	584.197901856212	909.929540913519	487.638397125038	588.731152157600	957.405401458169	783.042859060676	398.390981500890	915.434251688566	657.977175321583	317.306311278741	1014.064578592670	596.547803666697	384.212679756492	1039.879455547685	523.738859869651	377.248877845653	1010.466301605623	449.564275062955	364.726624885250	921.624099445025	338.187626306429	306.451016397142	981.509772801639	222.101943586837	362.618331284683	878.703828125173	400.123443417806	596.350878161580	804.341808400042	299.018950824542	658.076124550981	839.120585198259	203.650248635231	592.364841421620	698.118991494770	42.652692854553	562.129749745884	868.546381053115	96.764656778480	597.983470677032	781.407081091906	36.235039471201	637.439903089950	989.314238942376	45.289155052863	625.653540897330	861.189107907499	59.227702604026	392.961962282544	932.737056140759	61.160486438337	310.936519049095	1016.637269553954	122.287051140658	336.324852824959	1141.960551431752	74.673467054792	301.087920259293	765.105094175343	1093.998821524678	243.452015228410	803.861787411617	837.262052592526	213.148187610650	930.000569678211	1099.689223791248	824.418883159155	1165.381536090154	1013.652861127138	769.380033154204	
56	38.553214285714	674.102990469127	1010.986751347129	539.518670849385	844.892378124204	1440.362053856675	356.663135810958	959.776494411376	1364.135274340155	506.682447248264	893.156359813641	1435.170753803116	689.753417777041	859.195620992544	1496.157743495326	508.915581703726	905.804568353955	940.108520361588	639.588151393573	875.159726587813	965.981214580571	367.245899378234	929.927954887171	735.134944951888	605.648652421783	844.998888613229	631.490599071354	668.739130597845	912.591014094720	574.864788280434	584.161607624975	905.735017464090	486.972745830382	588.691748403840	955.071219242233	781.741554461557	398.065627882361	913.043663519544	657.534947634506	315.887524243625	1010.943366351145	595.577791349387	383.557151034618	1037.687869500539	524.955244307070	376.637434411143	1011.864078504025	451.430224258558	363.706363571622	929.998848676635	335.281233349533	304.456763805081	995.879500694275	222.535284854489	361.257891203090	874.119018015336	399.541567800179	596.243917983790	799.284031955759	298.784387074342	657.991443325794	833.366462486124	203.275755772474	592.219940436405	691.667443040961	42.648230276968	562.141983128796	862.017437353899	96.581513820345	597.686181926803	774.940336837386	36.236479286802	637.439701543019	982.843098657106	45.232034959598	625.668528520513	883.931617254604	54.169384184223	390.867204230093	956.741421603410	58.205923622870	309.913870124144	1037.549985094739	123.237644064500	335.717319601922	1165.447542526021	80.599179624452	303.110424735802	760.922873936089	1094.815834400675	243.430549737026	792.210530649100	837.282344651418	213.435714232094	934.317391966940	1099.891620930186	822.987083505323	1173.128939000949	1029.957047924343	763.258244135169	
